<svg xmlns="http://www.w3.org/2000/svg" viewBox="-660 -337.5 1320 675"><g fill="none" stroke="black" stroke-width="0.2"><path d="M-427.5 -4.7L-427.4 -4.3L-427.2 -4.0L-426.9 -3.8L-426.5 -3.7L-423.0 -3.7L-423.0 -4.7L-424.5 -4.7L-424.5 -6.0L-422.7 -7.8L-417.3 -7.8L-415.5 -6.0L-415.5 -4.7L-417.0 -4.7L-417.0 -3.7L-413.5 -3.7L-413.1 -3.8L-412.8 -4.0L-412.6 -4.3L-412.5 -4.7L-412.5 -8.2L-413.5 -8.2L-413.5 -6.7L-414.8 -6.7L-416.6 -8.5L-416.6 -13.9L-414.8 -15.7L-413.5 -15.7L-413.5 -14.2L-412.5 -14.2L-412.5 -18.7L-303.5 -18.7L-303.5 -14.2L-302.5 -14.2L-302.5 -15.7L-301.2 -15.7L-299.4 -13.9L-299.4 -8.5L-301.2 -6.7L-302.5 -6.7L-302.5 -8.2L-303.5 -8.2L-303.5 -4.7L-303.4 -4.3L-303.2 -4.0L-302.9 -3.8L-302.5 -3.7L-299.0 -3.7L-299.0 -4.7L-300.5 -4.7L-300.5 -6.0L-298.7 -7.8L-293.3 -7.8L-291.5 -6.0L-291.5 -4.7L-293.0 -4.7L-293.0 -3.7L-289.5 -3.7L-289.1 -3.8L-288.8 -4.0L-288.6 -4.3L-288.5 -4.7L-288.5 -8.2L-289.5 -8.2L-289.5 -6.7L-290.8 -6.7L-292.6 -8.5L-292.6 -13.9L-290.8 -15.7L-289.5 -15.7L-289.5 -14.2L-288.5 -14.2L-288.5 -26.1L-284.5 -26.1L-284.5 -33.9L-288.5 -33.9L-288.5 -49.1L-284.5 -49.1L-284.5 -56.9L-288.5 -56.9L-288.5 -72.1L-284.5 -72.1L-284.5 -79.9L-288.5 -79.9L-288.5 -91.8L-289.5 -91.8L-289.5 -90.3L-290.8 -90.3L-292.6 -92.1L-292.6 -97.5L-290.8 -99.3L-289.5 -99.3L-289.5 -97.8L-288.5 -97.8L-288.5 -101.3L-288.6 -101.7L-288.8 -102.0L-289.1 -102.2L-289.5 -102.3L-293.0 -102.3L-293.0 -101.3L-291.5 -101.3L-291.5 -100.0L-293.3 -98.2L-298.7 -98.2L-300.5 -100.0L-300.5 -101.3L-299.0 -101.3L-299.0 -102.3L-302.5 -102.3L-302.9 -102.2L-303.2 -102.0L-303.4 -101.7L-303.5 -101.3L-303.5 -97.8L-302.5 -97.8L-302.5 -99.3L-301.2 -99.3L-299.4 -97.5L-299.4 -92.1L-301.2 -90.3L-302.5 -90.3L-302.5 -91.8L-303.5 -91.8L-303.5 -87.3L-412.5 -87.3L-412.5 -91.8L-413.5 -91.8L-413.5 -90.3L-414.8 -90.3L-416.6 -92.1L-416.6 -97.5L-414.8 -99.3L-413.5 -99.3L-413.5 -97.8L-412.5 -97.8L-412.5 -101.3L-412.6 -101.7L-412.8 -102.0L-413.1 -102.2L-413.5 -102.3L-417.0 -102.3L-417.0 -101.3L-415.5 -101.3L-415.5 -100.0L-417.3 -98.2L-422.7 -98.2L-424.5 -100.0L-424.5 -101.3L-423.0 -101.3L-423.0 -102.3L-426.5 -102.3L-426.9 -102.2L-427.2 -102.0L-427.4 -101.7L-427.5 -101.3L-427.5 -97.8L-426.5 -97.8L-426.5 -99.3L-425.2 -99.3L-423.4 -97.5L-423.4 -92.1L-425.2 -90.3L-426.5 -90.3L-426.5 -91.8L-427.5 -91.8L-427.5 -79.9L-431.5 -79.9L-431.5 -72.1L-427.5 -72.1L-427.5 -56.9L-431.5 -56.9L-431.5 -49.1L-427.5 -49.1L-427.5 -33.9L-431.5 -33.9L-431.5 -26.1L-427.5 -26.1L-427.5 -14.2L-426.5 -14.2L-426.5 -15.7L-425.2 -15.7L-423.4 -13.9L-423.4 -8.5L-425.2 -6.7L-426.5 -6.7L-426.5 -8.2L-427.5 -8.2L-427.5 -4.7" /><path d="M-254.9 23.3L-251.4 23.3L-251.4 22.3L-252.9 22.3L-252.9 21.0L-251.1 19.2L-245.7 19.2L-243.9 21.0L-243.9 22.3L-245.4 22.3L-245.4 23.3L-241.9 23.3L-241.5 23.2L-241.2 23.0L-240.9 22.7L-240.9 22.3L-240.9 18.8L-241.9 18.8L-241.9 20.3L-243.2 20.3L-245.0 18.5L-245.0 13.1L-243.2 11.3L-241.9 11.3L-241.9 12.8L-240.9 12.8L-240.9 8.3L-131.9 8.3L-131.9 12.8L-130.9 12.8L-130.9 11.3L-129.6 11.3L-127.8 13.1L-127.8 18.5L-129.6 20.3L-130.9 20.3L-130.9 18.8L-131.9 18.8L-131.9 22.3L-131.8 22.7L-131.6 23.0L-131.2 23.2L-130.9 23.3L-127.4 23.3L-127.4 22.3L-128.9 22.3L-128.9 21.0L-127.1 19.2L-121.7 19.2L-119.9 21.0L-119.9 22.3L-121.4 22.3L-121.4 23.3L-117.9 23.3L-117.5 23.2L-117.1 23.0L-116.9 22.7L-116.9 22.3L-116.9 18.8L-117.9 18.8L-117.9 20.3L-119.2 20.3L-121.0 18.5L-121.0 13.1L-119.2 11.3L-117.9 11.3L-117.9 12.8L-116.9 12.8L-116.9 0.9L-112.9 0.9L-112.9 -6.9L-116.9 -6.9L-116.9 -22.1L-112.9 -22.1L-112.9 -29.9L-116.9 -29.9L-116.9 -45.1L-112.9 -45.1L-112.9 -52.9L-116.9 -52.9L-116.9 -64.8L-117.9 -64.8L-117.9 -63.3L-119.2 -63.3L-121.0 -65.1L-121.0 -70.5L-119.2 -72.3L-117.9 -72.3L-117.9 -70.8L-116.9 -70.8L-116.9 -74.3L-117.0 -74.7L-117.2 -75.0L-117.5 -75.2L-117.9 -75.3L-121.4 -75.3L-121.4 -74.3L-119.9 -74.3L-119.9 -73.0L-121.7 -71.2L-127.1 -71.2L-128.9 -73.0L-128.9 -74.3L-127.4 -74.3L-127.4 -75.3L-130.9 -75.3L-131.2 -75.2L-131.6 -75.0L-131.8 -74.7L-131.9 -74.3L-131.9 -70.8L-130.9 -70.8L-130.9 -72.3L-129.6 -72.3L-127.8 -70.5L-127.8 -65.1L-129.6 -63.3L-130.9 -63.3L-130.9 -64.8L-131.9 -64.8L-131.9 -60.3L-240.9 -60.3L-240.9 -64.8L-241.9 -64.8L-241.9 -63.3L-243.2 -63.3L-245.0 -65.1L-245.0 -70.5L-243.2 -72.3L-241.9 -72.3L-241.9 -70.8L-240.9 -70.8L-240.9 -74.3L-240.9 -74.7L-241.2 -75.0L-241.5 -75.2L-241.9 -75.3L-245.4 -75.3L-245.4 -74.3L-243.9 -74.3L-243.9 -73.0L-245.7 -71.2L-251.1 -71.2L-252.9 -73.0L-252.9 -74.3L-251.4 -74.3L-251.4 -75.3L-254.9 -75.3L-255.2 -75.2L-255.6 -75.0L-255.8 -74.7L-255.9 -74.3L-255.9 -70.8L-254.9 -70.8L-254.9 -72.3L-253.6 -72.3L-251.8 -70.5L-251.8 -65.1L-253.6 -63.3L-254.9 -63.3L-254.9 -64.8L-255.9 -64.8L-255.9 -52.9L-259.9 -52.9L-259.9 -45.1L-255.9 -45.1L-255.9 -29.9L-259.9 -29.9L-259.9 -22.1L-255.9 -22.1L-255.9 -6.9L-259.9 -6.9L-259.9 0.9L-255.9 0.9L-255.9 12.8L-254.9 12.8L-254.9 11.3L-253.6 11.3L-251.8 13.1L-251.8 18.5L-253.6 20.3L-254.9 20.3L-254.9 18.8L-255.9 18.8L-255.9 22.3L-255.8 22.7L-255.6 23.0L-255.2 23.2L-254.9 23.3" /><path d="M-111.4 -103.0L-137.6 -103.0L-138.9 -102.8L-139.4 -102.6L-140.1 -102.2L-140.9 -101.3L-141.5 -100.2L-148.1 -78.1L-148.7 -77.0L-149.5 -76.1L-150.2 -75.7L-150.7 -75.5L-152.0 -75.3L-222.5 -75.3L-223.7 -75.5L-224.2 -75.7L-224.9 -76.1L-225.7 -77.0L-226.3 -78.1L-233.0 -100.2L-233.5 -101.3L-234.3 -102.2L-235.0 -102.6L-235.6 -102.8L-236.8 -103.0L-261.7 -103.0L-262.3 -102.9L-263.0 -102.8L-263.6 -102.5L-264.3 -102.0L-264.7 -101.6L-265.1 -101.1L-265.4 -100.5L-265.6 -99.8L-270.0 -79.3L-270.0 27.3L-265.6 47.8L-265.4 48.5L-265.1 49.1L-264.7 49.6L-264.3 50.0L-263.6 50.5L-263.0 50.8L-262.3 50.9L-261.7 51.0L-236.8 51.0L-235.6 50.8L-235.0 50.6L-234.3 50.2L-233.5 49.3L-233.0 48.2L-226.3 26.1L-225.7 25.0L-224.9 24.1L-224.2 23.7L-223.7 23.5L-222.5 23.3L-152.0 23.3L-150.7 23.5L-150.2 23.7L-149.5 24.1L-148.7 25.0L-148.1 26.1L-141.5 48.2L-140.9 49.3L-140.1 50.2L-139.4 50.6L-138.9 50.8L-137.6 51.0L-111.4 51.0L-110.7 50.9L-110.1 50.8L-109.5 50.5L-108.8 50.1L-108.4 49.6L-108.0 49.1L-107.7 48.5L-107.5 47.9L-102.8 27.3L-102.8 -79.3L-107.5 -99.9L-107.7 -100.5L-108.0 -101.1L-108.4 -101.6L-108.8 -102.1L-109.5 -102.5L-110.1 -102.8L-110.7 -102.9L-111.4 -103.0" /><path d="M-281.0 3.0L-280.4 2.9L-279.9 2.8L-279.4 2.5L-278.8 2.1L-278.5 1.6L-278.2 1.1L-278.1 0.6L-278.0 0.0L-278.0 -106.0L-278.1 -106.6L-278.2 -107.2L-278.5 -107.7L-278.9 -108.1L-279.3 -108.5L-279.9 -108.8L-280.4 -108.9L-281.0 -109.0L-435.0 -109.0L-435.6 -108.9L-436.1 -108.8L-436.7 -108.5L-437.1 -108.1L-437.5 -107.7L-437.8 -107.2L-437.9 -106.6L-438.0 -106.0L-438.0 0.0L-437.9 0.6L-437.8 1.2L-437.5 1.7L-437.1 2.1L-436.7 2.5L-436.1 2.8L-435.6 2.9L-435.0 3.0L-281.0 3.0" /><path d="M-279.0 66.2L-288.0 66.2L-288.0 70.0L-279.0 70.0L-279.0 74.2L-288.0 74.2L-288.0 78.0L-279.0 78.0L-279.0 84.1L-283.0 84.1L-283.0 82.1L-285.0 82.1L-285.0 90.1L-283.0 90.1L-283.0 85.6L-279.0 85.6L-279.0 102.2L-283.0 102.2L-283.0 106.0L-277.0 106.0L-277.0 108.6L-280.0 111.6L-314.0 111.6L-314.0 104.2L-299.0 98.1L-299.0 46.1L-314.0 39.9L-314.0 32.6L-280.0 32.6L-277.0 35.6L-277.0 38.2L-283.0 38.2L-283.0 42.0L-279.0 42.0L-279.0 54.2L-288.0 54.2L-288.0 58.0L-279.0 58.0L-279.0 66.2" /><path d="M-106.8 -138.0L-106.8 -164.0L-121.3 -164.0L-121.3 -168.0L-129.5 -168.0L-129.5 -164.0L-161.3 -164.0L-161.3 -168.0L-169.5 -168.0L-169.5 -164.0L-201.3 -164.0L-201.3 -168.0L-209.5 -168.0L-209.5 -164.0L-224.0 -164.0L-224.0 -138.0L-191.5 -138.0L-191.5 -134.0L-183.3 -134.0L-183.3 -138.0L-147.5 -138.0L-147.5 -134.0L-139.3 -134.0L-139.3 -138.0L-106.8 -138.0" /><path d="M77.9 -146.9L75.5 -144.0L77.9 -141.9L76.4 -140.3L73.3 -137.2L71.6 -135.7L68.3 -132.9L66.5 -131.6L62.9 -129.1L59.2 -126.9L55.3 -124.8L51.3 -123.1L49.3 -122.3L45.2 -120.8L43.1 -120.2L38.8 -119.2L36.7 -118.8L32.3 -118.1L30.1 -117.9L30.0 -117.9L29.7 -120.9L25.9 -120.6L26.2 -117.5L20.1 -117.0L19.4 -125.1L29.4 -125.9L29.1 -129.8L31.0 -130.0L34.7 -130.6L36.6 -131.0L40.2 -131.9L42.1 -132.4L45.6 -133.7L47.4 -134.4L50.8 -136.0L54.1 -137.8L57.3 -139.7L60.3 -141.9L61.8 -143.1L64.7 -145.6L66.0 -146.9L68.7 -149.7L69.9 -151.1L71.1 -152.6L73.4 -155.7L74.4 -157.2L76.4 -160.5L77.3 -162.1L78.9 -165.5L79.6 -167.3L80.9 -170.8L82.0 -174.4L82.8 -178.1L83.5 -181.8L83.7 -183.7L84.0 -187.4L84.0 -189.3L83.9 -193.1L83.8 -195.0L87.7 -195.4L86.8 -205.3L94.9 -206.0L95.4 -200.0L92.3 -199.7L92.6 -195.9L95.7 -196.2L95.7 -196.1L95.9 -193.9L96.0 -189.5L96.0 -187.3L95.7 -182.9L95.4 -180.7L94.7 -176.4L93.8 -172.1L92.6 -168.0L91.2 -163.8L90.4 -161.8L88.5 -157.8L87.5 -155.9L85.4 -152.1L84.2 -150.2L81.7 -146.6L80.3 -144.9L77.9 -146.9" /><path d="M-54.4 -160.0L-50.5 -160.0L-49.5 -160.0L-48.1 -160.2L-47.2 -160.5L-46.0 -161.1L-44.8 -161.9L-43.7 -162.8L-42.7 -163.8L-41.7 -164.9L-40.4 -166.8L-38.7 -169.7L-37.3 -172.7L-34.5 -179.5L-33.4 -181.7L-32.6 -183.1L-31.8 -184.4L-30.5 -186.0L-29.1 -187.6L-27.6 -189.0L-26.0 -190.3L-23.7 -191.9L-21.2 -193.3L-18.7 -194.6L-16.6 -195.4L-14.1 -196.3L-3.4 -199.4L-1.3 -200.2L0.7 -201.2L1.7 -201.9L2.7 -202.6L3.6 -203.4L4.1 -204.1L4.6 -204.9L4.9 -205.8L5.0 -206.7L5.0 -207.4L5.0 -223.0L-76.0 -223.0L-76.0 -212.8L-70.3 -212.8L-70.3 -212.0L-76.0 -212.0L-76.0 -172.9L-72.9 -169.3L-56.0 -169.3L-56.0 -161.7L-54.4 -160.0" /><path d="M35.3 -146.4L35.4 -146.4L37.8 -146.5L40.1 -146.8L42.5 -147.3L45.5 -148.3L47.7 -149.3L49.7 -150.4L51.7 -151.7L53.6 -153.2L55.8 -151.0L58.5 -153.7L56.3 -155.9L57.8 -157.8L59.1 -159.8L60.3 -161.9L61.2 -164.1L62.2 -167.1L62.7 -169.4L63.1 -171.8L63.2 -174.2L63.2 -174.3L66.3 -174.3L66.3 -178.1L63.2 -178.1L63.2 -184.2L71.3 -184.2L71.3 -174.2L75.2 -174.2L75.0 -170.4L74.4 -166.7L73.6 -163.1L72.8 -160.7L71.9 -158.4L70.2 -155.0L68.3 -151.9L66.0 -148.9L63.5 -146.1L60.7 -143.5L57.7 -141.3L54.5 -139.3L51.2 -137.7L48.8 -136.8L46.5 -136.0L42.9 -135.1L39.1 -134.6L35.4 -134.4L35.4 -138.3L25.4 -138.3L25.4 -146.4L31.5 -146.4L31.5 -143.3L35.3 -143.3L35.3 -146.4" /><path d="M-231.0 48.0L-231.0 50.0L-188.0 50.0L-188.0 47.0L-188.3 45.4L-188.5 44.7L-189.1 43.4L-190.3 41.6L-193.6 38.0L-194.8 36.1L-195.4 34.7L-195.7 33.8L-195.9 32.0L-196.0 30.9L-198.1 30.9L-198.1 40.0L-201.9 40.0L-201.9 30.9L-217.1 30.9L-217.1 40.0L-220.9 40.0L-220.9 30.9L-223.0 30.9L-223.0 32.0L-223.3 33.8L-223.5 34.7L-224.1 36.1L-225.3 38.0L-228.6 41.6L-229.8 43.4L-230.4 44.7L-230.7 45.4L-230.9 47.0L-231.0 48.0" /></g></svg>